<svg xmlns="http://www.w3.org/2000/svg">
  <symbol id="x" viewBox="0 0 128 128"><path d="M75.92,54.2L122.54,0h-11.05l-40.49,47.06L38.67,0H1.38l48.9,71.16L1.38,128h11.05l42.75-49.7,34.15,49.7h37.3l-50.71-73.8h0ZM60.78,71.79l-4.95-7.09L16.41,8.32h16.97l31.81,45.51,4.95,7.09,41.35,59.15h-16.97l-33.74-48.27h0Z"/></symbol>

  <symbol id="instagram" viewBox="0 0 128 128"><path d="M37.49.45c-6.81.32-11.46,1.41-15.53,3.01-4.21,1.64-7.77,3.84-11.32,7.4-3.55,3.56-5.73,7.13-7.36,11.34-1.58,4.07-2.64,8.73-2.94,15.54C.04,44.55-.03,46.74,0,64.12c.03,17.38.11,19.56.44,26.39.33,6.81,1.41,11.46,3.01,15.52,1.64,4.21,3.84,7.77,7.4,11.32,3.56,3.55,7.13,5.73,11.35,7.36,4.07,1.57,8.73,2.65,15.54,2.94,6.81.3,9,.37,26.38.33,17.37-.03,19.56-.11,26.39-.43s11.45-1.41,15.52-3c4.21-1.65,7.77-3.84,11.32-7.4s5.73-7.13,7.36-11.35c1.58-4.07,2.65-8.73,2.94-15.53.3-6.83.37-9.01.34-26.39-.03-17.38-.11-19.56-.44-26.38s-1.41-11.46-3-15.53c-1.64-4.21-3.84-7.77-7.4-11.32s-7.13-5.73-11.35-7.36c-4.07-1.58-8.73-2.65-15.54-2.94S81.26-.03,63.88,0s-19.56.11-26.38.44M38.24,116.14c-6.24-.27-9.63-1.31-11.89-2.18-2.99-1.15-5.12-2.54-7.37-4.77s-3.63-4.37-4.8-7.35c-.88-2.26-1.93-5.64-2.22-11.88-.32-6.74-.38-8.77-.42-25.86-.04-17.09.03-19.11.32-25.86.27-6.23,1.31-9.63,2.18-11.88,1.15-2.99,2.54-5.12,4.77-7.37s4.36-3.63,7.35-4.8c2.26-.88,5.64-1.93,11.88-2.22,6.75-.32,8.77-.38,25.86-.42,17.08-.04,19.11.03,25.86.32,6.23.27,9.63,1.3,11.88,2.18,2.99,1.15,5.12,2.54,7.37,4.77s3.64,4.36,4.8,7.35c.88,2.25,1.93,5.63,2.22,11.87.32,6.75.39,8.77.42,25.86.03,17.08-.03,19.11-.33,25.86-.27,6.24-1.31,9.63-2.18,11.89-1.15,2.99-2.54,5.12-4.78,7.37s-4.36,3.63-7.35,4.8c-2.25.88-5.64,1.93-11.87,2.23-6.75.32-8.77.38-25.86.42s-19.11-.03-25.86-.32M90.42,29.79c0,4.24,3.45,7.67,7.69,7.67s7.67-3.45,7.67-7.69c0-4.24-3.45-7.67-7.69-7.67,0,0,0,0,0,0-4.24,0-7.67,3.45-7.66,7.69M31.14,64.06c.04,18.15,14.78,32.83,32.92,32.8,18.15-.03,32.84-14.77,32.8-32.92s-14.78-32.83-32.93-32.8c-18.15.04-32.83,14.78-32.8,32.93M42.67,64.04c-.02-11.78,9.51-21.35,21.29-21.38,11.78-.02,21.35,9.51,21.38,21.29.02,11.78-9.51,21.35-21.29,21.38-11.78.02-21.35-9.51-21.38-21.29h0"/></symbol>

  <symbol id="facebook" viewBox="0 0 128 128"><path d="M64,0C28.65,0,0,28.65,0,64c0,30.01,20.66,55.2,48.54,62.12v-42.56h-13.2v-19.56h13.2v-8.43c0-21.78,9.86-31.88,31.24-31.88,1.77,0,4.11.15,6.42.39,2.97.31,5.88.75,7.49,1.2v17.73h0c-.38-.04-.82-.07-1.33-.1-.25-.01-.52-.03-.81-.04-.85-.04-1.84-.06-2.93-.08-.73,0-1.5-.01-2.32-.01-2.62,0-4.84.25-6.7.78-2.32.67-4.07,1.78-5.32,3.42-.25.33-.48.67-.69,1.04-.42.74-.77,1.56-1.04,2.47-.54,1.83-.8,4.01-.8,6.6v6.92h20.9l-3.59,19.56h-17.31v43.97c31.69-3.83,56.25-30.81,56.25-63.53C128,28.65,99.35,0,64,0Z"/></symbol>
</svg>