<svg id="a" xmlns="http://www.w3.org/2000/svg" width="1440" height="960" xmlns:xlink="http://www.w3.org/1999/xlink" viewBox="0 0 1440 960"><defs><clipPath id="b"><rect width="1440" height="960" fill="none" stroke-width="0"/></clipPath></defs><g clip-path="url(#b)"><path d="M1440,0H0v960h1440V0Z" fill="#999" stroke-width="0"/><path d="M691.93,617.91c18.98,5.09,38.08,5.82,56.32,2.9l16.54,61.76c-5.36,1.55-10.38,3.07-14.61,4.45l-56.1,18.21c-15.4,4.99-36.84-.75-47.68-12.78l-39.48-43.82c-5.41-6.01-12.76-13.68-20.31-21.2-7.51-7.54-15.21-14.92-21.21-20.33l-43.82-39.49c-12.03-10.85-17.77-32.3-12.77-47.68l18.19-56.11c1.37-4.22,2.89-9.25,4.44-14.6l61.78,16.55c-6.99,43.88,8.06,87.11,37.97,117.08,16.27,16.29,36.9,28.68,60.73,35.07v-.03s0,0,0,0Z" fill="#fff" stroke-width="0"/><path d="M911.77,566.93l-12.3,57.69c-3.37,15.85-19.09,31.54-34.9,34.91l-57.7,12.28c-4.37.93-9.45,2.11-14.87,3.47l-16.56-61.8c39.11-15.04,70.76-47.84,82.43-91.4,11.67-43.56.69-87.78-25.67-120.33l45.24-45.23c4.02,3.88,7.85,7.45,11.15,10.44l43.82,39.49c12.04,10.83,17.78,32.27,12.78,47.66l-18.19,56.11c-2.47,7.7-5.45,17.92-8.2,28.21-2.76,10.28-5.32,20.62-7,28.53h-.03Z" fill="#fff" stroke-width="0"/><path d="M600.52,438.51l-61.78-16.55c1.33-5.4,2.52-10.49,3.46-14.86l12.3-57.69c3.36-15.82,19.07-31.55,34.86-34.95l57.7-12.28c7.91-1.68,18.24-4.24,28.54-7,10.29-2.74,20.53-5.7,28.21-8.2l56.1-18.21c15.4-4.99,36.84.75,47.68,12.77l39.5,43.82c2.97,3.31,6.57,7.14,10.43,11.15l-45.21,45.21c-14.33-11.65-31.24-20.56-50.22-25.65-23.87-6.39-47.92-5.97-70.17.02-40.86,10.98-75.54,40.92-91.39,82.39h0Z" fill="#fff" stroke-width="0"/></g></svg>